# xmcd
#
# Track frame offsets: 
#        150
#        10758
#        23578
#        35684
#        48839
#        61806
#        74032
#        88649
#        101247
#        111284
#        124045
#        136469
#        149419
#        161886
#        174491
#        187423
#        198226
#        210955
#        224449
#        235518
#
# Disc length: 3305 seconds
#
# Revision: 0
# Processed by: cddbd v1.5.1PL0 Copyright (c) Steve Scherf et al.
# Submitted via: ExactAudioCopy v0.95b3
#
DISCID=260ce714
DTITLE=Various Artist - Nos cowboys québécois
DYEAR=2005
DGENRE=Country
TTITLE0=Le Soldat Lebrun/La vie d'un cowboy
TTITLE1=Lévis Bouliane, Aurèle Lacroix/Quand le soleil dit bonjour aux
TTITLE1=montagnes
TTITLE2=Marcel Martel/Un coin de ciel
TTITLE3=Tony Villemure/La Vallée du Saint-Maurice
TTITLE4=Willie Lamothe/Je chante à cheval
TTITLE5=Yvan Trempe/Dans ces prairies lointaines
TTITLE6=Paul Brunelle/Mon enfant je te pardonne
TTITLE7=Noëlla Therrien/J'aime être cowgirl
TTITLE8=Lyse Nancy/Bonsoir mon cowboy
TTITLE9=Jimmy Debate/Mon p'tit Jimmy
TTITLE10=Roland Tétrault/Rose de la prairie
TTITLE11=Paul-Émile Piché/C'était un ingénieur
TTITLE12=René Brisson/Quand on est cowboy
TTITLE13=Willie Lamothe/Allo ! Allo ! Petit Michel
TTITLE14=Paul Brunelle/Les troubadours du Far-West
TTITLE15=Marcel Martel/La chaîne de nos coeurs
TTITLE16=Le Soldat Lebrun/La mort d'un cowboy des prairies
TTITLE17=Gilles Besner/Allons au rodéo
TTITLE18=Paul-Émile Piché/Souvenir d'un cowboy
TTITLE19=Jimmy Debate/Pardonne-moi ma chérie
EXTD=
EXTT0=
EXTT1=
EXTT2=
EXTT3=
EXTT4=
EXTT5=
EXTT6=
EXTT7=
EXTT8=
EXTT9=
EXTT10=
EXTT11=
EXTT12=
EXTT13=
EXTT14=
EXTT15=
EXTT16=
EXTT17=
EXTT18=
EXTT19=
PLAYORDER=
